<svg width="512" height="512" viewBox="0 0 512 512" fill="none" xmlns="http://www.w3.org/2000/svg">
<rect x="38" y="142" width="436" height="260" fill="#131821"/>
<rect x="38" y="109" width="436" height="33" fill="#4F5259"/>
<rect x="86" y="157" width="107.921" height="25" fill="#8F9F60"/>
<rect x="86" y="197" width="311" height="25" fill="#CEA2AC"/>
<rect x="86" y="296" width="259.01" height="25" fill="#457D9A"/>
<path d="M86 336H345.01V361H86V336Z" fill="#6B958E"/>
<ellipse cx="61.2029" cy="125.5" rx="8.09406" ry="7.5" fill="#EC685B"/>
<path d="M67.832 168.84C67.016 169.24 66.088 169.56 65.048 169.8C66.088 170.04 67.016 170.36 67.832 170.76L74.648 174.456C75.08 174.664 75.384 174.928 75.56 175.248C75.752 175.552 75.848 175.888 75.848 176.256V181.416L56.408 171.264V168.36L75.848 158.184V163.344C75.848 163.712 75.752 164.056 75.56 164.376C75.384 164.68 75.08 164.944 74.648 165.168L67.832 168.84Z" fill="white" fill-opacity="0.82"/>
<path d="M209.28 185.712C209.104 186.144 208.872 186.528 208.584 186.864C208.312 187.2 208 187.48 207.648 187.704C207.312 187.928 206.944 188.096 206.544 188.208C206.16 188.32 205.776 188.376 205.392 188.376H202.224L215.856 152.592C216.176 151.776 216.664 151.152 217.32 150.72C217.976 150.288 218.736 150.072 219.6 150.072H222.768L209.28 185.712ZM248.401 168.36V171.264L228.961 181.416V176.256C228.961 175.888 229.049 175.552 229.225 175.248C229.417 174.928 229.729 174.664 230.161 174.456L236.977 170.76C237.793 170.36 238.721 170.04 239.761 169.8C238.721 169.56 237.793 169.24 236.977 168.84L230.161 165.168C229.729 164.944 229.417 164.68 229.225 164.376C229.049 164.056 228.961 163.712 228.961 163.344V158.184L248.401 168.36Z" fill="white" fill-opacity="0.82"/>
<path d="M412.28 225.712C412.104 226.144 411.872 226.528 411.584 226.864C411.312 227.2 411 227.48 410.648 227.704C410.312 227.928 409.944 228.096 409.544 228.208C409.16 228.32 408.776 228.376 408.392 228.376H405.224L418.856 192.592C419.176 191.776 419.664 191.152 420.32 190.72C420.976 190.288 421.736 190.072 422.6 190.072H425.768L412.28 225.712ZM451.401 208.36V211.264L431.961 221.416V216.256C431.961 215.888 432.049 215.552 432.225 215.248C432.417 214.928 432.729 214.664 433.161 214.456L439.977 210.76C440.793 210.36 441.721 210.04 442.761 209.8C441.721 209.56 440.793 209.24 439.977 208.84L433.161 205.168C432.729 204.944 432.417 204.68 432.225 204.376C432.049 204.056 431.961 203.712 431.961 203.344V198.184L451.401 208.36Z" fill="white" fill-opacity="0.82"/>
<path d="M361.28 323.712C361.104 324.144 360.872 324.528 360.584 324.864C360.312 325.2 360 325.48 359.648 325.704C359.312 325.928 358.944 326.096 358.544 326.208C358.16 326.32 357.776 326.376 357.392 326.376H354.224L367.856 290.592C368.176 289.776 368.664 289.152 369.32 288.72C369.976 288.288 370.736 288.072 371.6 288.072H374.768L361.28 323.712ZM400.401 306.36V309.264L380.961 319.416V314.256C380.961 313.888 381.049 313.552 381.225 313.248C381.417 312.928 381.729 312.664 382.161 312.456L388.977 308.76C389.793 308.36 390.721 308.04 391.761 307.8C390.721 307.56 389.793 307.24 388.977 306.84L382.161 303.168C381.729 302.944 381.417 302.68 381.225 302.376C381.049 302.056 380.961 301.712 380.961 301.344V296.184L400.401 306.36Z" fill="white" fill-opacity="0.82"/>
<path d="M361.28 365.712C361.104 366.144 360.872 366.528 360.584 366.864C360.312 367.2 360 367.48 359.648 367.704C359.312 367.928 358.944 368.096 358.544 368.208C358.16 368.32 357.776 368.376 357.392 368.376H354.224L367.856 332.592C368.176 331.776 368.664 331.152 369.32 330.72C369.976 330.288 370.736 330.072 371.6 330.072H374.768L361.28 365.712ZM400.401 348.36V351.264L380.961 361.416V356.256C380.961 355.888 381.049 355.552 381.225 355.248C381.417 354.928 381.729 354.664 382.161 354.456L388.977 350.76C389.793 350.36 390.721 350.04 391.761 349.8C390.721 349.56 389.793 349.24 388.977 348.84L382.161 345.168C381.729 344.944 381.417 344.68 381.225 344.376C381.049 344.056 380.961 343.712 380.961 343.344V338.184L400.401 348.36Z" fill="white" fill-opacity="0.82"/>
<path d="M67.832 307.84C67.016 308.24 66.088 308.56 65.048 308.8C66.088 309.04 67.016 309.36 67.832 309.76L74.648 313.456C75.08 313.664 75.384 313.928 75.56 314.248C75.752 314.552 75.848 314.888 75.848 315.256V320.416L56.408 310.264V307.36L75.848 297.184V302.344C75.848 302.712 75.752 303.056 75.56 303.376C75.384 303.68 75.08 303.944 74.648 304.168L67.832 307.84Z" fill="white" fill-opacity="0.82"/>
<path d="M67.832 208.84C67.016 209.24 66.088 209.56 65.048 209.8C66.088 210.04 67.016 210.36 67.832 210.76L74.648 214.456C75.08 214.664 75.384 214.928 75.56 215.248C75.752 215.552 75.848 215.888 75.848 216.256V221.416L56.408 211.264V208.36L75.848 198.184V203.344C75.848 203.712 75.752 204.056 75.56 204.376C75.384 204.68 75.08 204.944 74.648 205.168L67.832 208.84Z" fill="white" fill-opacity="0.82"/>
<path d="M67.832 347.84C67.016 348.24 66.088 348.56 65.048 348.8C66.088 349.04 67.016 349.36 67.832 349.76L74.648 353.456C75.08 353.664 75.384 353.928 75.56 354.248C75.752 354.552 75.848 354.888 75.848 355.256V360.416L56.408 350.264V347.36L75.848 337.184V342.344C75.848 342.712 75.752 343.056 75.56 343.376C75.384 343.68 75.08 343.944 74.648 344.168L67.832 347.84Z" fill="white" fill-opacity="0.82"/>
</svg>
